<svg xmlns="http://www.w3.org/2000/svg" viewBox="0 0 32 32" width="32" height="32" role="img" aria-label="Vera">
  <!-- Polished flat apple (our palette): full two-lobe warm-red body with a top
       dimple and subtle bottom dimple, a short curved brown stem, a sage-green
       leaf to the side, and a glossy white highlight swoosh on the upper-left. -->
  <rect width="32" height="32" rx="7" fill="#ffffff"/>
  <path d="M16 12.4
           C 14 9.8 10.5 9.6 8.4 11
           C 6.4 12.6 5.5 15.4 5.8 18.2
           C 6.1 21.4 8 25.6 11 27
           C 12.8 27.8 14.4 27.3 16 26.9
           C 17.6 27.3 19.2 27.8 21 27
           C 24 25.6 25.9 21.4 26.2 18.2
           C 26.5 15.4 25.6 12.6 23.6 11
           C 21.5 9.6 18 9.8 16 12.4 Z" fill="#d1453b"/>
  <!-- glossy highlight swoosh, upper-left -->
  <path d="M11.6 12.3
           C 9.1 13.5 7.7 15.7 8 18.4
           C 8.1 19.2 9.1 19 9.3 18.2
           C 9.8 16.2 10.7 14.4 12.3 13.1
           C 12.9 12.6 12.4 11.9 11.6 12.3 Z"
        fill="#ffffff" opacity=".9"/>
  <path d="M16 12.8 C 16.2 10.6 16.8 9.4 17.8 8.9" fill="none" stroke="#8a5a2b" stroke-width="1.5" stroke-linecap="round"/>
  <path d="M15.9 11.2 C 14.2 9 11.8 8.5 10.8 9 C 11.2 11.2 13.8 12.1 15.9 11.2 Z" fill="#5f8367"/>
</svg>
